<?xml version="1.0" encoding="UTF-8" standalone="no"?>
<svg
   xmlns:dc="http://purl.org/dc/elements/1.1/"
   xmlns:cc="http://creativecommons.org/ns#"
   xmlns:rdf="http://www.w3.org/1999/02/22-rdf-syntax-ns#"
   xmlns:svg="http://www.w3.org/2000/svg"
   xmlns="http://www.w3.org/2000/svg"
   xmlns:sodipodi="http://sodipodi.sourceforge.net/DTD/sodipodi-0.dtd"
   xmlns:inkscape="http://www.inkscape.org/namespaces/inkscape"
   width="133.39667mm"
   height="28.446123mm"
   viewBox="0 0 133.39667 28.446124"
   version="1.1"
   id="svg8"
   sodipodi:docname="logo.svg"
   inkscape:version="0.92.3pre0 (0ab9bec, 2018-03-03)">
  <sodipodi:namedview
     pagecolor="#ffffff"
     bordercolor="#666666"
     borderopacity="1"
     objecttolerance="10"
     gridtolerance="10"
     guidetolerance="10"
     inkscape:pageopacity="0"
     inkscape:pageshadow="2"
     inkscape:window-width="1920"
     inkscape:window-height="1048"
     id="namedview854"
     showgrid="false"
     inkscape:zoom="0.84196725"
     inkscape:cx="133.35269"
     inkscape:cy="64.750326"
     inkscape:window-x="1366"
     inkscape:window-y="0"
     inkscape:window-maximized="1"
     inkscape:current-layer="g1041" />
  <defs
     id="defs2">
    <style
       id="style6160">.cls-1{fill:#231f20;}.cls-2{fill:#9bd3f3;}.cls-3,.cls-6{fill:#fff;}.cls-3,.cls-5{stroke:#231f20;stroke-miterlimit:10;stroke-width:7px;}.cls-4,.cls-5{fill:#363d43;}</style>
  </defs>
  <metadata
     id="metadata5">
    <rdf:RDF>
      <cc:Work
         rdf:about="">
        <dc:format>image/svg+xml</dc:format>
        <dc:type
           rdf:resource="http://purl.org/dc/dcmitype/StillImage" />
        <dc:title />
      </cc:Work>
    </rdf:RDF>
  </metadata>
  <g
     id="layer1"
     transform="translate(-50.828867,-182.90992)">
    <path
       style="fill:#231f20;fill-opacity:1;stroke-width:0.10027196"
       d="m 86.871565,191.2804 c -0.72372,0.72605 -1.168802,1.32904 -1.583765,2.14574 -1.235082,2.4308 -1.01355,5.54401 0.541658,7.61206 1.039588,1.3824 2.217801,2.19456 3.788853,2.61172 1.772637,0.4707 3.142188,0.33145 4.701193,-0.47804 1.779131,-0.92374 2.648565,-1.98713 3.160828,-3.86587 0.451179,-1.65481 0.271302,-3.12352 -0.559319,-4.56655 -0.801292,-1.39214 -1.842493,-2.18785 -3.418634,-2.61264 -1.148097,-0.30944 -2.196398,-0.27297 -3.288503,0.11442 -0.367608,0.13047 -0.594385,0.1773 -0.504123,0.10358 0.30358,-0.24673 1.600435,-0.60804 2.33479,-0.65029 1.034159,-0.0596 2.468973,0.34107 3.357907,0.93763 2.235424,1.50019 3.187191,4.10771 2.478284,6.78967 -0.272808,1.03219 -0.652044,1.72453 -1.438543,2.62633 -0.48561,0.55682 -0.692026,0.71705 -1.59926,1.24161 -1.502465,0.86838 -2.735044,1.09893 -4.609284,0.86109 -0.497617,-0.0631 -0.708716,-0.0602 -0.502363,0.007 0.439921,0.14314 1.489707,0.22803 2.286849,0.18492 0.935439,-0.0507 1.991145,-0.38562 2.945027,-0.93435 1.014194,-0.58378 1.55286,-1.09156 2.253806,-2.12455 0.431341,-0.63568 0.590808,-1.00654 0.842331,-1.95882 0.341423,-1.29277 0.347381,-2.31896 0.02019,-3.49226 -0.270917,-0.97161 -1.225968,-2.4498 -1.973644,-3.05476 -2.848242,-2.30449 -6.777254,-1.78301 -8.783,1.16571 -0.737163,1.08378 -0.999077,2.74604 -0.656518,4.1668 0.168646,0.69946 0.816936,1.83169 1.37181,2.39591 1.678802,1.70693 4.451566,1.9027 6.217443,0.43899 1.645603,-1.36403 2.060768,-3.43713 1.042572,-5.20606 -1.468757,-2.55169 -5.095588,-2.38575 -6.000815,0.27456 -0.488473,1.43558 0.546754,3.11466 1.963135,3.18407 0.480839,0.0235 0.60789,-0.0129 1.031911,-0.29657 0.356312,-0.23835 0.504724,-0.4022 0.564066,-0.62246 l 0.08054,-0.29897 -0.519189,0.29842 c -0.894286,0.51401 -1.646222,0.32025 -2.156478,-0.55566 -0.936757,-1.60799 1.038169,-3.42816 2.881335,-2.65558 1.781903,0.74691 2.21157,3.25457 0.807868,4.71497 -0.445101,0.46308 -1.443417,1.00704 -1.833404,0.99905 -0.191092,-0.004 -0.180191,-0.0176 0.07215,-0.0914 0.595317,-0.17371 1.323292,-0.6772 1.601044,-1.10723 0.146254,-0.22647 0.241223,-0.4184 0.211022,-0.42655 -0.03016,-0.008 -0.237176,0.13301 -0.460502,0.31262 -2.523421,2.03672 -5.993464,-0.36755 -5.134257,-3.55734 0.795268,-2.95246 4.490717,-3.86074 6.844354,-1.6822 2.006822,1.85751 1.951469,5.13517 -0.121145,7.17363 -1.533745,1.50847 -4.184409,1.88561 -6.200939,0.88231 -3.101036,-1.54292 -4.2997,-5.37718 -2.680115,-8.5731 1.669087,-3.29363 5.768798,-4.56777 9.239192,-2.87147 4.431195,2.16595 5.653157,7.87391 2.551799,11.91973 -0.300446,0.39194 -0.444205,0.62004 -0.319456,0.50691 0.698816,-0.63388 1.655208,-2.36381 1.93758,-3.50473 1.280654,-5.17448 -2.581849,-10.11205 -7.756571,-9.91545 -1.251918,0.0476 -2.185559,0.33408 -3.437033,1.05476 -0.920973,0.53036 -1.020039,0.57224 -0.65144,0.27529 0.530091,-0.42715 1.78998,-1.05379 2.473446,-1.23038 1.448981,-0.37424 2.802277,-0.34365 4.213119,0.0953 0.508379,0.15817 0.898955,0.24332 0.867886,0.18951 -0.08512,-0.14786 -1.828827,-0.60103 -2.50813,-0.65185 -0.854054,-0.0639 -1.831343,0.0229 -2.646538,0.23504 -0.517402,0.13456 -0.597633,0.13838 -0.29984,0.0143 1.331505,-0.55475 3.711046,-0.48269 5.261097,0.15926 4.445807,1.84129 6.428058,6.8026 4.51587,11.30262 -0.148038,0.34839 -0.509921,1.00034 -0.80418,1.44876 -0.29426,0.44844 -0.452252,0.73299 -0.351084,0.63237 0.101134,-0.10078 0.426923,-0.56434 0.72391,-1.03053 0.65453,-1.02742 1.216582,-2.76696 1.297072,-4.01432 0.10712,-1.66051 -0.30552,-3.43191 -1.135221,-4.87335 -1.89301,-3.28879 -5.513408,-4.88894 -9.132188,-4.03623 -1.01911,0.24013 -2.726355,1.1714 -3.416293,1.86357 z m 2.384184,-1.16463 c -0.120008,0.0954 -0.335086,0.21933 -0.477965,0.27511 -0.142879,0.0558 -0.04478,-0.0226 0.218177,-0.17369 0.262898,-0.15127 0.379801,-0.19694 0.259808,-0.10139 z m -1.893023,1.53944 c -0.01222,0.0455 -0.08542,0.0918 -0.162435,0.10308 -0.08531,0.0121 -0.07656,-0.0203 0.02227,-0.0827 0.08957,-0.0562 0.152625,-0.0654 0.140326,-0.02 z m -1.040472,1.15294 c 0.01075,0.0188 -0.02763,0.0923 -0.08541,0.16358 -0.06024,0.0742 -0.103517,0.0797 -0.101469,0.0128 0.0036,-0.1119 0.146341,-0.24684 0.186862,-0.17644 z m -0.995536,2.08947 c -0.08715,0.33663 -0.178281,0.62321 -0.202157,0.637 -0.02385,0.014 0.02795,-0.2504 0.115255,-0.58697 0.08714,-0.33664 0.178273,-0.62324 0.202155,-0.63701 0.02385,-0.014 -0.02798,0.25038 -0.115253,0.58698 z m 6.461367,5.9318 c -0.0099,0.0629 -1.308003,-0.0329 -1.444597,-0.10667 -0.05193,-0.0281 0.25378,-0.0273 0.679288,0.001 0.425529,0.0288 0.769917,0.0762 0.765317,0.10529 z m 3.642503,-10.49277 c 0.02239,0.0409 0.185534,0.14115 0.363043,0.22248 0.855626,0.39213 2.028262,1.42451 2.814943,2.47828 l 0.422843,0.56648 -0.405693,-0.6342 c -0.518323,-0.81022 -1.156632,-1.45855 -1.989531,-2.02069 -0.645468,-0.43564 -1.286091,-0.76102 -1.205648,-0.61234 z m 3.812286,3.78186 c 0.06871,0.11949 0.116648,0.15702 0.106422,0.0834 -0.0099,-0.0736 -0.06656,-0.17138 -0.125045,-0.21729 -0.05849,-0.0459 -0.05009,0.0144 0.01839,0.13392 z m -2.055334,9.54751 c -0.381117,0.3433 0.181986,-0.0172 0.261657,-0.11548 0.01224,-0.0456 -0.05088,-0.0365 -0.140352,0.02 -0.04537,0.0251 -0.0876,0.069 -0.121305,0.0955 z m 0.625148,0.36112 c -0.154922,0.17307 -0.203451,0.26966 -0.107837,0.21468 0.09563,-0.0549 0.280381,-0.23147 0.410594,-0.39219 0.303563,-0.37467 0.06786,-0.23647 -0.302615,0.17774 z m -0.607011,0.59987 c 0.09734,-0.0263 0.213745,-0.0955 0.258656,-0.15362 0.0451,-0.0576 -0.03443,-0.0359 -0.176909,0.0482 -0.142351,0.0844 -0.179313,0.13148 -0.08206,0.10479 z m -0.62162,0.70002 c 0.142875,-0.0559 0.357973,-0.17958 0.477968,-0.27512 0.120008,-0.0954 0.0031,-0.0499 -0.25981,0.10139 -0.262902,0.15127 -0.361047,0.22951 -0.218177,0.17368 z"
       id="path828" />
    <g
       data-name="Layer 1"
       id="Layer_1"
       transform="matrix(0.11600758,0,0,0.11600758,50.828024,182.93767)">
      <path
         id="path6166"
         transform="translate(-4.11,-3.15)"
         d="m 33.67,98.1 c -18.5,30.5 -17.31,77 -18,116.5 -0.06,3.57 -0.16,7 -0.29,10.33 82.071936,15.09662 269.22148,49.83 364.16896,-13.37117 4.40525,-2.6655 13.79502,-10.32566 15.96916,-12.51223 3.91567,-3.93806 -22.29061,9.56102 1.14719,-6.21188 9.16523,-6.54087 6.05705,-8.80367 -5.18665,-3.9455 C 335.15247,211.37203 288.04705,182.44081 283.17,140.61 c -3.61973,-31.0467 -13.5,-42 -13.5,-42 10.00948,-7.266567 18.07953,-16.881941 23.5,-28 9,-18.5 7.5,-42 -7.5,-57 -15,-15 -29,-10 -45,-1 -16,9 -20.5,28.5 -20.5,28.5 0,0 -31,-19.5 -69,-19.5 -38,0 -69,20.5 -69,20.5 0,0 1,-10 -17,-29 -18,-19 -59.5,-11 -61,26 -1.5,37 29.5,58.99 29.5,58.99 z"
         class="cls-1"
         style="fill:#231f20" />
      <path
         id="path6168"
         transform="translate(-4.11,-3.15)"
         d="m 27.5,149.6 c 0,0 15,25.33 43.17,24.33 28.17,-1 60,-24.33 80.76,-24.33 20.76,0 58.4,24.4 72.4,24.4 14,0 37,-2.36 54,-17 0,0 -0.71,-27.17 -7,-39.08 C 264.54,106.01 170.83,88 170.83,88 h -40.15 l -89.51,3.35 c 0,0 -11.34,31.25 -13.67,58.25 z"
         class="cls-2"
         style="fill:#9bd3f3" />
      <path
         id="path6170"
         transform="translate(-4.11,-3.15)"
         d="m 127.17,81.6 c 7.84,12.24 14.5,33 0,56 -14.5,23 -46,29.5 -67.5,16.5 C 38.17,141.1 28.33,126.36 31,96 33.67,65.64 94.17,30.1 127.17,81.6 Z"
         class="cls-3"
         style="fill:#ffffff;stroke:#231f20;stroke-width:7px;stroke-miterlimit:10" />
      <path
         id="path6172"
         transform="translate(-4.11,-3.15)"
         d="m 167.17,108.1 c 0,16.56 7.5,36.49 29,46.49 21.5,10 59.5,3.5 72,-27.5 12.5,-31 -11.5,-70.2 -39.5,-71.6 -28,-1.4 -61.5,5.12 -61.5,52.61 z"
         class="cls-3"
         style="fill:#ffffff;stroke:#231f20;stroke-width:7px;stroke-miterlimit:10" />
      <path
         id="circle6174"
         d="m 72.299999,101.44 a 13.25,13.25 0 0 1 -13.25,13.25 13.25,13.25 0 0 1 -13.25,-13.25 13.25,13.25 0 0 1 13.25,-13.249998 13.25,13.25 0 0 1 13.25,13.249998 z" />
      <path
         id="circle6176"
         d="M 248.3,101.44 A 13.25,13.25 0 0 1 235.05,114.69 13.25,13.25 0 0 1 221.8,101.44 13.25,13.25 0 0 1 235.05,88.190002 13.25,13.25 0 0 1 248.3,101.44 Z" />
      <path
         id="path6178"
         transform="translate(-4.11,-3.15)"
         d="m 39.62,72.82 c 0,0 20.05,14.78 63.22,18.28 43.17,3.5 125.11,5.9 157.33,-18.28 L 247.11,55.1 188.66,44.6 78.08,49.1 Z"
         class="cls-1"
         style="fill:#231f20" />
      <path
         id="path6180"
         transform="translate(-4.11,-3.15)"
         d="m 70.67,72.1 c 0,0 17.66,16.5 76.7,14 59.04,-2.5 92.5,-12 86,-25 -6.5,-13 -50.67,-29 -77.63,-31 -26.96,-2 -36.26,2.5 -51.6,7.5 -15.34,5 -28.36,14.5 24.17,14.5 0,0 -77.16,8.5 -15.8,13 61.36,4.5 52.53,10 35.33,11 -17.2,1 -77.17,-4 -77.17,-4 z"
         class="cls-4"
         style="fill:#363d43" />
      <path
         id="path6182"
         transform="translate(-4.11,-3.15)"
         d="m 230.72,39.69 c 0,0 25.71,8.69 42.91,41.7 0,0 15.64,-13.73 15.64,-35.79 0,-22.06 -15.81,-35.44 -30.93,-31.27 -15.12,4.17 -22.51,13.82 -27.62,25.36 z"
         class="cls-2"
         style="fill:#9bd3f3" />
      <path
         id="path6184"
         transform="translate(-4.11,-3.15)"
         d="m 72.83,38 c 0,0 -26.41,8.27 -44.08,39.6 0,0 -16.06,-13 -16.06,-34 0,-21 16.23,-33.6 31.76,-29.6 15.53,4 23.13,13.07 28.38,24 z"
         class="cls-2"
         style="fill:#9bd3f3" />
      <path
         id="path6186"
         transform="translate(-4.11,-3.15)"
         d="m 239.93,47.48 c 0,0 0.35,-10.92 7.82,-17.87 7.47,-6.95 21,-6.42 27.45,-0.86 0,0 -25.54,-2.26 -27.28,23.8 z" />
      <path
         id="path6188"
         transform="translate(-4.11,-3.15)"
         d="m 63.37,46.41 c 0,0 -0.36,-10.37 -8,-17 -7.64,-6.63 -21.6,-6.1 -28.2,-0.82 0,0 26.24,-2.14 28,22.59 z" />
      <path
         id="ellipse6190"
         d="m 166.28001,145.42999 a 19.459999,8.6899996 0 0 1 -19.46,8.69 19.459999,8.6899996 0 0 1 -19.46,-8.69 19.459999,8.6899996 0 0 1 19.46,-8.69 19.459999,8.6899996 0 0 1 19.46,8.69 z"
         style="fill:#363d43;stroke:#231f20;stroke-width:7px;stroke-miterlimit:10" />
      <path
         id="path6192"
         transform="translate(-4.11,-3.15)"
         d="m 25.92,164.85 c -0.931354,6.42384 -1.515536,12.89323 -1.75,19.38 0,0 44.75,14.63 121.75,18.63 0,0 -34.08,6.92 -68.42,0 -34.34,-6.92 -40,-7.92 -53.33,-9.58 -0.930736,5.954 -1.375536,11.97386 -1.33,18 0,0 60,11.67 150,5.33 0,0 -22.67,8.33 -78,7.33 -55.33,-1 -52.08,-2.33 -52.08,-2.33 0,0 35.28,9 108.18,12.33 72.9,3.33 170.28821,-6.92682 187.28821,-22.26682 0,0 -57.72821,-20.07318 -58.05821,-27.40318 0,0 -2,7.33 -20,8.33 0,0 18.23,-7.75 17.67,-26.33 0,0 -8,7 -27.33,11.67 -19.33,4.67 -34.67,5.39 -59.67,-4 -25,-9.39 -25.83,-9.53 -38.17,-10.7 -12.34,-1.17 -25.5,2.33 -30.67,4.33 -5.17,2 -14.83,12.33 -41.17,13.67 -26.34,1.34 -48.16,-1.81 -54.91,-16.39 z"
         class="cls-4"
         style="fill:#363d43" />
      <path
         id="path6194"
         transform="translate(-4.11,-3.15)"
         d="m 148.51,44 c 0,0 -4.34,2.42 -6.1,5.23 -1.76,2.81 -3.38,2.12 -4.9,0.6 -1.52,-1.52 0.2,-5 1.87,-4.79 a 2.1,2.1 0 0 1 1.94,1.42 c 0,0 4.19,-2.46 7.19,-2.46 z"
         class="cls-6"
         style="fill:#ffffff" />
      <path
         id="path6196"
         transform="translate(-4.11,-3.15)"
         d="m 168.39,46.69 c 0.26,-1.42 -1.59,-4.41 -11.55,-5 0,0 1.25,-1.47 -2.29,-2.91 a 8.77,8.77 0 0 0 -6.59,0 18.7,18.7 0 0 1 1.88,3.59 c 0.46,1.47 0.22,3.68 -0.16,4.08 -0.38,0.4 -3.13,0.41 -4.3,0.38 0,0 0.16,1.17 3.21,2 0,0 -8.49,2.21 -9.2,4.57 a 2.27,2.27 0 0 0 1.42,2.26 c 0,0 6.83,-4.19 12.82,-4.52 5.99,-0.33 7.79,0.33 7.79,0.33 a 16.23,16.23 0 0 1 -4.63,6.26 32.18,32.18 0 0 0 -8.7,0.76 c 0,0 4.89,-2 7.83,-3.16 a 2.75,2.75 0 0 0 -1.52,-2.29 c 0,0 -7.62,0.49 -12.52,3.76 0,0 0.54,1.69 3.59,1.2 0,0 -3.27,2.61 -5.39,4.36 0,0 0.11,1.58 2.5,1.8 0,0 1.39,0.49 5.51,-1.85 4.12,-2.34 9.08,-1 11.37,-0.49 2.29,0.51 3.27,0.82 2.94,-0.44 a 8,8 0 0 0 -1.52,-2.61 c 0,0 6.86,-3.21 7.46,-3.92 0.6,-0.71 -2.94,-5.61 -9.58,-5.83 -0.02,0.07 9.37,-0.91 9.63,-2.33 z m -14.06,0.91 a 15.51,15.51 0 0 0 2,-4 23.77,23.77 0 0 1 4.74,0 c 0,0 -0.25,2.5 -6.74,4 z"
         class="cls-6"
         style="fill:#ffffff" />
    </g>
  </g>
  <g
     transform="matrix(1.1446072,0,0,1.1446072,-152.42043,-157.77783)"
     id="g1041">
    <g
       id="text1026"
       style="font-style:normal;font-variant:normal;font-weight:normal;font-stretch:normal;font-size:10.74143505px;line-height:1.25;font-family:serif;-inkscape-font-specification:serif;letter-spacing:0px;word-spacing:0px;fill:#bfbfbf;fill-opacity:1;stroke:none;stroke-width:0.26853588"
       aria-label="CAPTIVE "
       transform="translate(0,0.44295553)">
      <path
         id="path1046"
         style="font-style:normal;font-variant:normal;font-weight:normal;font-stretch:normal;font-family:Geometos;-inkscape-font-specification:Geometos;text-align:start;letter-spacing:3.56977057px;text-anchor:start;fill:#bfbfbf;fill-opacity:1;stroke-width:0.26853588"
         d="m 188.27258,144.17929 q -0.25779,0.47262 -0.63374,0.85931 -0.37595,0.37595 -0.83783,0.65523 -0.45114,0.26854 -0.98822,0.41892 -0.52633,0.15038 -1.09562,0.15038 -0.83783,0 -1.57899,-0.32225 -0.74116,-0.32224 -1.29972,-0.87005 -0.54781,-0.55856 -0.87005,-1.29972 -0.32225,-0.74115 -0.32225,-1.57899 0,-0.83783 0.32225,-1.57899 0.32224,-0.74116 0.87005,-1.28897 0.55856,-0.55855 1.29972,-0.8808 0.74116,-0.32224 1.57899,-0.32224 0.56929,0 1.09562,0.15038 0.53708,0.15038 0.98822,0.42966 0.46188,0.26853 0.83783,0.65522 0.37595,0.37595 0.63374,0.83784 l -1.40712,0.56929 q -0.17187,-0.25779 -0.40818,-0.48336 -0.22557,-0.22557 -0.50485,-0.39744 -0.27927,-0.17186 -0.59078,-0.26853 -0.3115,-0.0967 -0.64448,-0.0967 -0.53707,0 -1.0097,0.22557 -0.46188,0.21482 -0.8056,0.58003 -0.34373,0.36521 -0.54782,0.85932 -0.20408,0.48336 -0.20408,1.00969 0,0.53708 0.20408,1.02044 0.20409,0.48336 0.54782,0.84857 0.34372,0.36521 0.8056,0.59078 0.47263,0.21483 1.0097,0.21483 0.33298,0 0.64448,-0.0967 0.31151,-0.0967 0.59078,-0.26854 0.27928,-0.17186 0.50485,-0.39743 0.23631,-0.23631 0.40818,-0.49411 z"
         inkscape:connector-curvature="0" />
      <path
         id="path1048"
         style="font-style:normal;font-variant:normal;font-weight:normal;font-stretch:normal;font-family:Geometos;-inkscape-font-specification:Geometos;text-align:start;letter-spacing:3.56977057px;text-anchor:start;fill:#bfbfbf;fill-opacity:1;stroke-width:0.26853588"
         d="m 191.86484,146.11275 4.0173,-7.85199 h 0.15038 l 4.0173,7.85199 h -1.6327 l -0.61226,-1.23527 h -3.7058 l -0.60152,1.23527 z m 2.96464,-2.54572 h 2.24496 l -1.11711,-2.37386 z"
         inkscape:connector-curvature="0" />
      <path
         id="path1050"
         style="font-style:normal;font-variant:normal;font-weight:normal;font-stretch:normal;font-family:Geometos;-inkscape-font-specification:Geometos;text-align:start;letter-spacing:3.56977057px;text-anchor:start;fill:#bfbfbf;fill-opacity:1;stroke-width:0.26853588"
         d="m 208.03902,138.25002 q 0.58003,0 1.08488,0.22557 0.51559,0.21483 0.89154,0.59078 0.37595,0.37595 0.59078,0.89153 0.22557,0.50485 0.22557,1.08489 0,0.58004 -0.19335,1.07414 -0.19334,0.49411 -0.56929,0.87006 -0.37595,0.36521 -0.95599,0.58004 -0.5693,0.20408 -1.3212,0.20408 h -1.75085 v 2.34164 h -1.5038 v -7.86273 z m 0,4.16767 q 0.33298,0 0.58003,-0.10741 0.24706,-0.11816 0.39744,-0.3115 0.16112,-0.19335 0.23631,-0.4404 0.0752,-0.24705 0.0752,-0.51559 0,-0.26854 -0.0967,-0.52633 -0.0967,-0.26854 -0.27928,-0.47262 -0.18261,-0.20409 -0.45114,-0.33299 -0.26854,-0.1289 -0.62301,-0.1289 h -1.83678 v 2.83574 z"
         inkscape:connector-curvature="0" />
      <path
         id="path1052"
         style="font-style:normal;font-variant:normal;font-weight:normal;font-stretch:normal;font-family:Geometos;-inkscape-font-specification:Geometos;text-align:start;letter-spacing:3.56977057px;text-anchor:start;fill:#bfbfbf;fill-opacity:1;stroke-width:0.26853588"
         d="m 220.80614,139.58195 h -2.24496 v 6.5308 h -1.5038 v -6.5308 h -2.2557 v -1.33193 h 6.00446 z"
         inkscape:connector-curvature="0" />
      <path
         id="path1054"
         style="font-style:normal;font-variant:normal;font-weight:normal;font-stretch:normal;font-family:Geometos;-inkscape-font-specification:Geometos;text-align:start;letter-spacing:3.56977057px;text-anchor:start;fill:#bfbfbf;fill-opacity:1;stroke-width:0.26853588"
         d="m 227.11598,146.11275 h -1.5038 v -7.85199 h 1.5038 z"
         inkscape:connector-curvature="0" />
      <path
         id="path1056"
         style="font-style:normal;font-variant:normal;font-weight:normal;font-stretch:normal;font-family:Geometos;-inkscape-font-specification:Geometos;text-align:start;letter-spacing:3.56977057px;text-anchor:start;fill:#bfbfbf;fill-opacity:1;stroke-width:0.26853588"
         d="m 239.44909,138.26076 -3.73802,7.85199 h -0.0859 l -3.72728,-7.85199 h 1.65418 l 2.11606,4.55437 2.11607,-4.55437 z"
         inkscape:connector-curvature="0" />
      <path
         id="path1058"
         style="font-style:normal;font-variant:normal;font-weight:normal;font-stretch:normal;font-family:Geometos;-inkscape-font-specification:Geometos;text-align:start;letter-spacing:3.56977057px;text-anchor:start;fill:#bfbfbf;fill-opacity:1;stroke-width:0.26853588"
         d="m 245.42175,139.58195 v 1.96569 h 3.80247 v 1.36416 h -3.80247 v 1.84753 h 4.28583 v 1.35342 h -5.77889 v -7.86273 h 5.77889 v 1.33193 z"
         inkscape:connector-curvature="0" />
    </g>
    <g
       id="text1032"
       style="font-style:normal;font-variant:normal;font-weight:normal;font-stretch:normal;font-size:17.33163261px;line-height:1.25;font-family:serif;-inkscape-font-specification:serif;letter-spacing:0px;word-spacing:0px;fill:#363d43;fill-opacity:1;stroke:none;stroke-width:0.43329078"
       aria-label="portal"
       transform="translate(0,-0.44294837)">
      <path
         id="path1061"
         style="font-style:normal;font-variant:normal;font-weight:normal;font-stretch:normal;font-family:Geometos;-inkscape-font-specification:Geometos;text-align:center;text-anchor:middle;fill:#363d43;fill-opacity:1;stroke-width:0.43329078"
         d="m 186.30211,149.49083 q 0.93591,0 1.7505,0.36396 0.83192,0.34663 1.43852,0.95324 0.60661,0.60661 0.95324,1.43853 0.36397,0.81458 0.36397,1.75049 0,0.93591 -0.31197,1.73316 -0.31197,0.79726 -0.91858,1.40387 -0.6066,0.58927 -1.54251,0.9359 -0.91858,0.32931 -2.13179,0.32931 h -2.82506 v 3.77829 H 180.652 v -12.68675 z m 0,6.72467 q 0.53729,0 0.93591,-0.17332 0.39863,-0.19064 0.64127,-0.50261 0.25998,-0.31197 0.3813,-0.7106 0.12132,-0.39863 0.12132,-0.83192 0,-0.43329 -0.15598,-0.84925 -0.15599,-0.43329 -0.45063,-0.76259 -0.29463,-0.3293 -0.72793,-0.53728 -0.43329,-0.20798 -1.00523,-0.20798 h -2.96371 v 4.57555 z"
         inkscape:connector-curvature="0" />
      <path
         id="path1063"
         style="font-style:normal;font-variant:normal;font-weight:normal;font-stretch:normal;font-family:Geometos;-inkscape-font-specification:Geometos;text-align:center;text-anchor:middle;fill:#363d43;fill-opacity:1;stroke-width:0.43329078"
         d="m 198.32566,162.42022 q -1.35186,0 -2.54775,-0.51994 -1.19588,-0.51995 -2.09712,-1.40387 -0.88392,-0.90124 -1.40387,-2.09712 -0.51994,-1.19589 -0.51994,-2.56509 0,-1.35186 0.51994,-2.54775 0.51995,-1.21321 1.40387,-2.09712 0.90124,-0.90125 2.09712,-1.4212 1.19589,-0.51995 2.54775,-0.51995 1.3692,0 2.56509,0.51995 1.19588,0.51995 2.07979,1.4212 0.90125,0.88391 1.4212,2.09712 0.51994,1.19589 0.51994,2.54775 0,1.3692 -0.51994,2.56509 -0.51995,1.19588 -1.4212,2.09712 -0.88391,0.88392 -2.07979,1.40387 -1.19589,0.51994 -2.56509,0.51994 z m 0,-10.90159 q -0.86658,0 -1.62917,0.36396 -0.74526,0.34663 -1.3172,0.93591 -0.55462,0.58928 -0.88392,1.38653 -0.3293,0.77992 -0.3293,1.62917 0,0.86659 0.3293,1.64651 0.3293,0.77992 0.88392,1.38653 0.57194,0.58928 1.3172,0.95324 0.76259,0.34663 1.62917,0.34663 0.86659,0 1.61185,-0.34663 0.76259,-0.36396 1.3172,-0.95324 0.57194,-0.60661 0.90124,-1.38653 0.32931,-0.77992 0.32931,-1.64651 0,-0.84925 -0.32931,-1.62917 -0.3293,-0.79725 -0.90124,-1.38653 -0.55461,-0.58928 -1.3172,-0.93591 -0.74526,-0.36396 -1.61185,-0.36396 z"
         inkscape:connector-curvature="0" />
      <path
         id="path1065"
         style="font-style:normal;font-variant:normal;font-weight:normal;font-stretch:normal;font-family:Geometos;-inkscape-font-specification:Geometos;text-align:center;text-anchor:middle;fill:#363d43;fill-opacity:1;stroke-width:0.43329078"
         d="m 209.46476,162.17758 h -2.4091 v -12.68675 h 5.7541 q 0.97058,0 1.76783,0.3293 0.81459,0.31197 1.38653,0.90124 0.57195,0.57195 0.88391,1.38653 0.32931,0.79726 0.32931,1.7505 0,1.43852 -0.72793,2.51308 -0.7106,1.07457 -1.90648,1.54252 1.61184,2.11446 3.17169,4.26358 h -2.89439 q -0.76259,-0.9879 -1.49052,-1.99314 -0.72793,-1.00523 -1.45585,-2.04513 h -2.4091 z m 0,-6.18739 h 3.345 q 0.32931,0 0.67594,-0.12132 0.36396,-0.13866 0.64127,-0.39863 0.2773,-0.27731 0.45062,-0.67593 0.19065,-0.39863 0.19065,-0.93591 0,-0.27731 -0.0693,-0.6586 -0.0693,-0.3813 -0.2773,-0.72793 -0.20798,-0.34664 -0.58928,-0.58928 -0.3813,-0.24264 -1.02257,-0.24264 h -3.345 z"
         inkscape:connector-curvature="0" />
      <path
         id="path1067"
         style="font-style:normal;font-variant:normal;font-weight:normal;font-stretch:normal;font-family:Geometos;-inkscape-font-specification:Geometos;text-align:center;text-anchor:middle;fill:#363d43;fill-opacity:1;stroke-width:0.43329078"
         d="m 227.91834,151.63995 h -3.62231 v 10.53763 h -2.42643 v -10.53763 h -3.63964 v -2.14912 h 9.68838 z"
         inkscape:connector-curvature="0" />
      <path
         id="path1069"
         style="font-style:normal;font-variant:normal;font-weight:normal;font-stretch:normal;font-family:Geometos;-inkscape-font-specification:Geometos;text-align:center;text-anchor:middle;fill:#363d43;fill-opacity:1;stroke-width:0.43329078"
         d="m 226.28673,162.17758 6.48203,-12.66942 h 0.24265 l 6.48203,12.66942 h -2.63441 l -0.98791,-1.99314 h -5.97941 l -0.97057,1.99314 z m 4.78353,-4.1076 h 3.62231 l -1.80249,-3.83029 z"
         inkscape:connector-curvature="0" />
      <path
         id="path1071"
         style="font-style:normal;font-variant:normal;font-weight:normal;font-stretch:normal;font-family:Geometos;-inkscape-font-specification:Geometos;text-align:center;text-anchor:middle;fill:#363d43;fill-opacity:1;stroke-width:0.43329078"
         d="m 249.70177,160.02846 v 2.14912 H 240.568 v -12.68675 h 2.42643 v 10.53763 z"
         inkscape:connector-curvature="0" />
    </g>
  </g>
</svg>
